# xmcd
#
# Track frame offsets: 
#        150
#        19722
#        36640
#        73665
#        90887
#        112687
#        131722
#        142560
#        161762
#        188982
#        208262
#        223872
#        241315
#        255117
#        273012
#
# Disc length: 4014 seconds
#
# Revision: 5
# Processed by: cddbd v1.5PL3 Copyright (c) Steve Scherf et al.
# Submitted via: ExactAudioCopy v0.95a3
#
DISCID=cb0fac0f
DTITLE=Various Artist - Sharp Dressed Men
DYEAR=2002
DGENRE=Country
TTITLE0=Lonestar - Gimme All Your Lovin'
TTITLE1=Brad Paisley - Sharp Dressed Man
TTITLE2=Hank Williams Jr. - Jesus Just Left Chicago  - Waitin' For The 
TTITLE2=Bus
TTITLE3=Tracy Bird - La Grange
TTITLE4=Brooks and Dunn - Rough Boy
TTITLE5=Dwight Yoakam - I'm Bad, I'm Nationwide
TTITLE6=Willie Nelson - She Loves My Automobile
TTITLE7=Andy Griggs - I Need You Tonight
TTITLE8=The Warren Brothers - Cheap Sunglasses
TTITLE9=Trace Adkins - Legs
TTITLE10=Kenny Chesney - Tush
TTITLE11=Montgomery Gentry - Just Got Paid
TTITLE12=Phil Vassar - I Thank You
TTITLE13=Hank Williams III - Fearless Boogie
TTITLE14=Alan Jackson - Sure Got Cold After The Rain Fell
EXTD=ID3G: 2
EXTT0=
EXTT1=
EXTT2=
EXTT3=
EXTT4=
EXTT5=
EXTT6=
EXTT7=
EXTT8=
EXTT9=
EXTT10=
EXTT11=
EXTT12=
EXTT13=
EXTT14=
PLAYORDER=
